Coordinates
version=1
nRows=16
nColumns=28
inDegrees=yes

Units are S.I. units (second, meters, Newtons, ...)
Angles are in degrees.

endheader
time	pelvis_tilt	pelvis_list	pelvis_rotation	pelvis_tx	pelvis_ty	pelvis_tz	hip_flexion_r	hip_adduction_r	hip_rotation_r	knee_angle_r	ankle_angle_r	subtalar_angle_r	mtp_angle_r	hip_flexion_l	hip_adduction_l	hip_rotation_l	knee_angle_l	socket_flexion	socket_adduction	socket_rotation	socket_tx	socket_ty	socket_tz	foot_flex	lumbar_extension	lumbar_bending	lumbar_rotation
      0.93750000	      2.95775910	     -6.05386402	     -2.02479211	      0.41990532	      1.03315543	      0.30598440	      0.29702389	     11.05512581	     -0.76953932	    -13.98600906	     10.31929061	    -10.88973344	      1.76130886	     13.02431415	    -14.12058934	     -1.46697868	    -45.75171123	     10.34654879	      7.98461443	     16.79331861	      0.07041466	      0.03917577	     -0.02459233	     -0.45778451	    -10.27021774	      6.16200626	      4.57455319
      0.94166667	      2.91666718	     -5.90809568	     -2.24899040	      0.42453868	      1.03389299	      0.30646047	     -0.14150126	     10.88375985	     -0.65328673	    -13.64676272	     10.26753201	    -10.67643144	      1.78893371	     13.59685657	    -13.95506741	     -1.32519442	    -45.55472205	     10.11671625	      8.06775269	     16.72756778	      0.06964597	      0.03896208	     -0.02499019	     -0.45580629	    -10.26665521	      5.95150537	      4.80563273
      0.94583333	      2.87813883	     -5.77022257	     -2.47593543	      0.42916151	      1.03458640	      0.30691938	     -0.57268557	     10.71507525	     -0.54773519	    -13.32336552	     10.21852366	    -10.47563225	      1.81732251	     14.15072524	    -13.81075798	     -1.19029119	    -45.34007413	      9.86892479	      8.14816321	     16.65010744	      0.06877462	      0.03870959	     -0.02548188	     -0.45281618	    -10.26735915	      5.75382660	      5.02409699
      0.95000000	      2.83479403	     -5.63516691	     -2.69612627	      0.43375255	      1.03525650	      0.30738991	     -0.99978903	     10.55205874	     -0.43010110	    -12.98792442	     10.16441386	    -10.26523768	      1.84980068	     14.69102075	    -13.65375335	     -1.03974706	    -45.09902464	      9.59902783	      8.21727253	     16.56858103	      0.06778387	      0.03837009	     -0.02577631	     -0.44816344	    -10.26306558	      5.55734954	      5.25547142
      0.95416667	      2.78635187	     -5.50371358	     -2.91302900	      0.43834606	      1.03588397	      0.30785877	     -1.41794704	     10.39265789	     -0.31307181	    -12.65372444	     10.10531990	    -10.05417107	      1.88777782	     15.21046215	    -13.50044071	     -0.88249356	    -44.83393542	      9.30593824	      8.27895625	     16.46773837	      0.06664882	      0.03793492	     -0.02604248	     -0.44346471	    -10.25382912	      5.36839058	      5.49800072
      0.95833333	      2.73582726	     -5.38620598	     -3.13523389	      0.44294522	      1.03643022	      0.30824522	     -1.82648704	     10.23153924	     -0.20479708	    -12.33722714	     10.05076760	     -9.85636612	      1.92924843	     15.71355801	    -13.35659523	     -0.73049870	    -44.55095793	      8.99483546	      8.34122566	     16.36326283	      0.06547087	      0.03737659	     -0.02628026	     -0.43746388	    -10.24368820	      5.18409559	      5.72635328
      0.96250000	      2.68977723	     -5.26697400	     -3.34949153	      0.44751361	      1.03695835	      0.30873320	     -2.23473720	     10.08539737	     -0.09351384	    -12.02049665	      9.99725989	     -9.65914097	      1.97610775	     16.19615127	    -13.22257925	     -0.57404602	    -44.24638121	      8.66628542	      8.38888800	     16.24974404	      0.06415207	      0.03680058	     -0.02649817	     -0.43210408	    -10.23461413	      5.01457428	      5.95437489
      0.96666667	      2.68339626	     -5.24774452	     -3.60432125	      0.45187552	      1.03738829	      0.30898945	     -2.53605499	     10.00292505	     -0.13616075	    -11.99511607	      9.99743617	     -9.63590156	      1.98365863	     16.63628221	    -13.18533694	     -0.54029396	    -43.93274276	      8.36214267	      8.35682545	     16.22036734	      0.06308101	      0.03608944	     -0.02649930	     -0.39409741	    -10.34486074	      5.01644611	      5.99139858
      0.97083333	      2.57446737	     -5.08669191	     -3.76948858	      0.45673870	      1.03784940	      0.30927388	     -3.02452409	      9.80188360	      0.12791818	    -11.39565806	      9.85971330	     -9.27202151	      2.07066181	     17.07156590	    -12.94072868	     -0.25836745	    -43.54795438	      7.94779778	      8.40177973	     16.01418079	      0.06110322	      0.03506835	     -0.02646813	     -0.39470387	    -10.18979020	      4.78629442	      6.42572175
      0.97500000	      2.54352874	     -4.98481110	     -3.98069189	      0.46121706	      1.03823236	      0.30985707	     -3.41451214	      9.67282967	      0.21552304	    -11.13582566	      9.83684152	     -9.12185778	      2.13188015	     17.52474578	    -12.88974595	     -0.12036472	    -43.20993935	      7.58058033	      8.47484515	     15.91119229	      0.05961617	      0.03461114	     -0.02701064	     -0.40715453	    -10.22127798	      4.56838425	      6.58984351
      0.97916667	      2.54104924	     -4.97732678	     -4.22361731	      0.46548451	      1.03854333	      0.31015025	     -3.70379053	      9.60208614	      0.17396788	    -11.12449389	      9.84096346	     -9.10493008	      2.14025961	     17.95675485	    -12.87053925	     -0.07949366	    -42.86702969	      7.25975547	      8.39859041	     15.88133723	      0.05845862	      0.03403612	     -0.02695776	     -0.36464556	    -10.33617484	      4.57342296	      6.61706874
      0.98333333	      2.44240310	     -4.85920197	     -4.34839232	      0.47037084	      1.03880897	      0.31052779	     -4.21086206	      9.46102044	      0.40827449	    -10.52025296	      9.80903128	     -8.78996699	      2.21070103	     18.41151066	    -12.75142887	      0.10704197	    -42.45901642	      6.84457952	      8.41225343	     15.79612889	      0.05671627	      0.03331473	     -0.02721592	     -0.38958107	    -10.19625770	      4.37239433	      6.87288722
      0.98750000	      2.43563307	     -4.85888282	     -4.57330876	      0.47459005	      1.03902667	      0.31080628	     -4.48684975	      9.40002084	      0.36928477	    -10.51412421	      9.80408338	     -8.77238960	      2.21805319	     18.83704427	    -12.73840598	      0.14433969	    -42.09439506	      6.50708145	      8.31762877	     15.75942115	      0.05545739	      0.03273220	     -0.02704323	     -0.34302479	    -10.32004784	      4.37269209	      6.90306764
      0.99166667	      2.32227971	     -4.76409981	     -4.69552244	      0.47956728	      1.03919605	      0.31112471	     -4.98824866	      9.27437013	      0.59449910	     -9.89286857	      9.74000958	     -8.45911944	      2.28732603	     19.21187003	    -12.62128018	      0.32419374	    -41.62184443	      6.04387655	      8.28624292	     15.66505381	      0.05328998	      0.03159914	     -0.02699346	     -0.36537599	    -10.14568739	      4.21647859	      7.18298610
      0.99583333	      2.31449499	     -4.76872057	     -4.90651759	      0.48373893	      1.03932209	      0.31140766	     -5.25754469	      9.22032017	      0.55790694	     -9.89614969	      9.73356206	     -8.44481860	      2.29479068	     19.63332187	    -12.61849282	      0.35944791	    -41.24037255	      5.69263833	      8.17646030	     15.62399425	      0.05201987	      0.03109293	     -0.02678047	     -0.31619740	    -10.27837348	      4.20629311	      7.21039924
      1.00000000	      2.20327880	     -4.70278755	     -5.02534092	      0.48874065	      1.03938325	      0.31170741	     -5.75538239	      9.12037878	      0.76773934	     -9.29334286	      9.67796891	     -8.16024432	      2.36964346	     19.93016918	    -12.52053119	      0.53095354	    -40.71281428	      5.18923792	      8.10903747	     15.53647910	      0.04952096	      0.02965688	     -0.02649105	     -0.33708224	    -10.10089851	      4.09321883	      7.48117033
